<svg width="13" height="13" viewBox="0 0 13 13" fill="none" xmlns="http://www.w3.org/2000/svg">
<path d="M6.5 11.5102C6.39709 11.5102 6.29417 11.4723 6.21292 11.391L2.925 8.10311C2.76792 7.94603 2.76792 7.68603 2.925 7.52895C3.08209 7.37186 3.34209 7.37186 3.49917 7.52895L6.5 10.5298L9.50084 7.52895C9.65792 7.37186 9.91792 7.37186 10.075 7.52895C10.2321 7.68603 10.2321 7.94603 10.075 8.10311L6.78709 11.391C6.70584 11.4723 6.60292 11.5102 6.5 11.5102Z" fill="#62686D"/>
<path d="M6.5 11.4185C6.27792 11.4185 6.09375 11.2343 6.09375 11.0122V1.896C6.09375 1.67391 6.27792 1.48975 6.5 1.48975C6.72208 1.48975 6.90625 1.67391 6.90625 1.896V11.0122C6.90625 11.2343 6.72208 11.4185 6.5 11.4185Z" fill="#62686D"/>
</svg>
