<svg width="16" height="15" viewBox="0 0 16 15" fill="none" xmlns="http://www.w3.org/2000/svg">
<g clip-path="url(#clip0_54_10201)">
<path d="M14.475 15H1.525C0.68125 15 0 14.3613 0 13.5703V1.42969C0 0.638672 0.68125 0 1.525 0H14.4781C15.3187 0 16 0.638672 16 1.42969V13.5732C16 14.3613 15.3188 15 14.475 15Z" fill="#FF884B"/>
<path opacity="0.2" d="M14.9094 1.05762C14.8031 0.949219 14.65 0.878906 14.4781 0.878906H1.525C1.2 0.878906 0.9375 1.125 0.9375 1.42969V13.5732C0.9375 13.7344 1.0125 13.8779 1.12812 13.9775L2.21875 15H14.475C15.3156 15 16 14.3613 16 13.5703V2.08008L14.9094 1.05762Z" fill="black"/>
<path d="M1.525 14.1211C1.20312 14.1211 0.9375 13.875 0.9375 13.5703V1.42969C0.9375 1.125 1.2 0.878906 1.525 0.878906H14.4781C14.8 0.878906 15.0656 1.125 15.0656 1.42969V13.5732C15.0656 13.875 14.8031 14.124 14.4781 14.124H1.525V14.1211Z" fill="#FFB946"/>
<path d="M6.42505 6.16113H6.65005V6.30176H6.42505V6.16113Z" fill="white"/>
<path d="M6.73438 6.81738H6.95938V6.95801H6.73438V6.81738Z" fill="white"/>
<path d="M6.42505 6.60059H6.65005V6.74121H6.42505V6.60059Z" fill="white"/>
<path d="M6.42505 7.74023H6.65005V7.88086H6.42505V7.74023Z" fill="white"/>
<path d="M6.73438 6.60059H6.95938V6.74121H6.73438V6.60059Z" fill="white"/>
<path d="M6.42505 6.38086H6.65005V6.52149H6.42505V6.38086Z" fill="white"/>
<path d="M6.42505 7.95996H6.65005V8.10059H6.42505V7.95996Z" fill="white"/>
<path d="M6.42505 8.17969H6.65005V8.32031H6.42505V8.17969Z" fill="white"/>
<path d="M6.73438 6.16113H6.95938V6.30176H6.73438V6.16113Z" fill="white"/>
<path d="M6.73438 6.38086H6.95938V6.52149H6.73438V6.38086Z" fill="white"/>
<path d="M6.42505 6.81738H6.65005V6.95801H6.42505V6.81738Z" fill="white"/>
<path d="M6.42505 5.45801H6.65005V5.59863H6.42505V5.45801Z" fill="white"/>
<path d="M6.42505 5.01855H6.65005V5.15918H6.42505V5.01855Z" fill="white"/>
<path d="M6.42505 5.23828H6.65005V5.37891H6.42505V5.23828Z" fill="white"/>
<path d="M9.3501 10.2451H9.5751V10.3857H9.3501V10.2451Z" fill="white"/>
<path d="M9.3501 10.4648H9.5751V10.6055H9.3501V10.4648Z" fill="white"/>
<path d="M6.42505 4.79883H6.65005V4.93945H6.42505V4.79883Z" fill="white"/>
<path d="M6.73438 5.23828H6.95938V5.37891H6.73438V5.23828Z" fill="white"/>
<path d="M6.73438 5.01855H6.95938V5.15918H6.73438V5.01855Z" fill="white"/>
<path d="M6.73438 5.45801H6.95938V5.59863H6.73438V5.45801Z" fill="white"/>
<path d="M6.73438 4.79883H6.95938V4.93945H6.73438V4.79883Z" fill="white"/>
<path d="M6.73438 10.6816H6.95938V10.8223H6.73438V10.6816Z" fill="white"/>
<path d="M6.42505 10.4648H6.65005V10.6055H6.42505V10.4648Z" fill="white"/>
<path d="M6.42505 10.2451H6.65005V10.3857H6.42505V10.2451Z" fill="white"/>
<path d="M6.42505 10.6816H6.65005V10.8223H6.42505V10.6816Z" fill="white"/>
<path d="M6.73438 9.10254H6.95938V9.24316H6.73438V9.10254Z" fill="white"/>
<path d="M6.42505 10.9014H6.65005V11.042H6.42505V10.9014Z" fill="white"/>
<path d="M6.73438 8.88281H6.95938V9.02344H6.73438V8.88281Z" fill="white"/>
<path d="M6.73438 10.4648H6.95938V10.6055H6.73438V10.4648Z" fill="white"/>
<path d="M6.73438 10.2451H6.95938V10.3857H6.73438V10.2451Z" fill="white"/>
<path d="M9.3501 10.6816H9.5751V10.8223H9.3501V10.6816Z" fill="white"/>
<path d="M6.73438 10.9014H6.95938V11.042H6.73438V10.9014Z" fill="white"/>
<path d="M6.42505 8.88281H6.65005V9.02344H6.42505V8.88281Z" fill="white"/>
<path d="M6.73438 7.95996H6.95938V8.10059H6.73438V7.95996Z" fill="white"/>
<path d="M6.73438 7.52344H6.95938V7.66406H6.73438V7.52344Z" fill="white"/>
<path d="M6.73438 8.17969H6.95938V8.32031H6.73438V8.17969Z" fill="white"/>
<path d="M6.42505 9.54199H6.65005V9.68262H6.42505V9.54199Z" fill="white"/>
<path d="M6.73438 9.32227H6.95938V9.46289H6.73438V9.32227Z" fill="white"/>
<path d="M6.73438 9.54199H6.95938V9.68262H6.73438V9.54199Z" fill="white"/>
<path d="M6.42505 9.32227H6.65005V9.46289H6.42505V9.32227Z" fill="white"/>
<path d="M6.42505 7.52344H6.65005V7.66406H6.42505V7.52344Z" fill="white"/>
<path d="M6.42505 9.10254H6.65005V9.24316H6.42505V9.10254Z" fill="white"/>
<path d="M6.73438 7.74023H6.95938V7.88086H6.73438V7.74023Z" fill="white"/>
<path d="M9.3501 6.81738H9.5751V6.95801H9.3501V6.81738Z" fill="white"/>
<path d="M9.3501 6.38086H9.5751V6.52149H9.3501V6.38086Z" fill="white"/>
<path d="M9.3501 6.60059H9.5751V6.74121H9.3501V6.60059Z" fill="white"/>
<path d="M9.0437 6.38086H9.2687V6.52149H9.0437V6.38086Z" fill="white"/>
<path d="M9.0437 6.16113H9.2687V6.30176H9.0437V6.16113Z" fill="white"/>
<path d="M9.3501 10.9014H9.5751V11.042H9.3501V10.9014Z" fill="white"/>
<path d="M9.0437 7.74023H9.2687V7.88086H9.0437V7.74023Z" fill="white"/>
<path d="M9.0437 6.60059H9.2687V6.74121H9.0437V6.60059Z" fill="white"/>
<path d="M9.0437 8.17969H9.2687V8.32031H9.0437V8.17969Z" fill="white"/>
<path d="M9.3501 6.16113H9.5751V6.30176H9.3501V6.16113Z" fill="white"/>
<path d="M9.3501 5.01855H9.5751V5.15918H9.3501V5.01855Z" fill="white"/>
<path d="M9.0437 6.81738H9.2687V6.95801H9.0437V6.81738Z" fill="white"/>
<path d="M9.0437 5.01855H9.2687V5.15918H9.0437V5.01855Z" fill="white"/>
<path d="M9.0437 4.79883H9.2687V4.93945H9.0437V4.79883Z" fill="white"/>
<path d="M9.0437 5.45801H9.2687V5.59863H9.0437V5.45801Z" fill="white"/>
<path d="M5.21252 2.37305V11.8389H10.7844V4.42969L5.21252 2.37305ZM7.12815 10.1924H7.06877V11.124H6.31565V10.1924H6.25627V10.0986H7.13127V10.1924H7.12815ZM7.12815 8.83008H7.06877V9.76172H6.31565V8.83008H6.25627V8.73633H7.13127V8.83008H7.12815ZM7.12815 7.4707H7.06877V8.40234H6.31565V7.4707H6.25627V7.37695H7.13127V7.4707H7.12815ZM7.12815 6.1084H7.06877V7.04004H6.31565V6.1084H6.25627V6.01465H7.13127V6.1084H7.12815ZM7.12815 4.74609H7.06877V5.67773H6.31565V4.74609H6.25627V4.65234H7.13127V4.74609H7.12815ZM9.74377 10.1924H9.6844V11.124H8.93127V10.1924H8.8719V10.0986H9.7469V10.1924H9.74377ZM9.74377 8.83008H9.6844V9.76172H8.93127V8.83008H8.8719V8.73633H9.7469V8.83008H9.74377ZM9.74377 7.4707H9.6844V8.40234H8.93127V7.4707H8.8719V7.37695H9.7469V7.4707H9.74377ZM9.74377 6.1084H9.6844V7.04004H8.93127V6.1084H8.8719V6.01465H9.7469V6.1084H9.74377ZM9.74377 4.74609H9.6844V5.67773H8.93127V4.74609H8.8719V4.65234H9.7469V4.74609H9.74377Z" fill="white"/>
<path d="M9.0437 5.23828H9.2687V5.37891H9.0437V5.23828Z" fill="white"/>
<path d="M9.3501 5.45801H9.5751V5.59863H9.3501V5.45801Z" fill="white"/>
<path d="M9.3501 4.79883H9.5751V4.93945H9.3501V4.79883Z" fill="white"/>
<path d="M9.0437 7.52344H9.2687V7.66406H9.0437V7.52344Z" fill="white"/>
<path d="M9.3501 5.23828H9.5751V5.37891H9.3501V5.23828Z" fill="white"/>
<path d="M9.0437 7.95996H9.2687V8.10059H9.0437V7.95996Z" fill="white"/>
<path d="M9.0437 10.4648H9.2687V10.6055H9.0437V10.4648Z" fill="white"/>
<path d="M9.0437 9.32227H9.2687V9.46289H9.0437V9.32227Z" fill="white"/>
<path d="M9.3501 9.54199H9.5751V9.68262H9.3501V9.54199Z" fill="white"/>
<path d="M9.0437 10.6816H9.2687V10.8223H9.0437V10.6816Z" fill="white"/>
<path d="M9.0437 8.88281H9.2687V9.02344H9.0437V8.88281Z" fill="white"/>
<path d="M9.0437 10.9014H9.2687V11.042H9.0437V10.9014Z" fill="white"/>
<path d="M9.3501 9.32227H9.5751V9.46289H9.3501V9.32227Z" fill="white"/>
<path d="M9.3501 8.88281H9.5751V9.02344H9.3501V8.88281Z" fill="white"/>
<path d="M9.3501 9.10254H9.5751V9.24316H9.3501V9.10254Z" fill="white"/>
<path d="M9.0437 9.10254H9.2687V9.24316H9.0437V9.10254Z" fill="white"/>
<path d="M9.0437 10.2451H9.2687V10.3857H9.0437V10.2451Z" fill="white"/>
<path d="M9.3501 7.74023H9.5751V7.88086H9.3501V7.74023Z" fill="white"/>
<path d="M9.3501 7.95996H9.5751V8.10059H9.3501V7.95996Z" fill="white"/>
<path d="M9.3501 8.17969H9.5751V8.32031H9.3501V8.17969Z" fill="white"/>
<path d="M9.0437 9.54199H9.2687V9.68262H9.0437V9.54199Z" fill="white"/>
<path d="M9.3501 7.52344H9.5751V7.66406H9.3501V7.52344Z" fill="white"/>
<path d="M4.9281 11.9941H11.075V12.627H4.9281V11.9941Z" fill="white"/>
</g>
<defs>
<clipPath id="clip0_54_10201">
<rect width="16" height="15" fill="white"/>
</clipPath>
</defs>
</svg>
