<svg width="17" height="15" viewBox="0 0 17 15" fill="none" xmlns="http://www.w3.org/2000/svg">
<g clip-path="url(#clip0_54_10471)">
<path d="M15.3797 15H1.62031C0.723828 15 0 14.3613 0 13.5703V1.42969C0 0.638672 0.723828 0 1.62031 0H15.383C16.2762 0 17 0.638672 17 1.42969V13.5732C17 14.3613 16.2762 15 15.3797 15Z" fill="#FF884B"/>
<path opacity="0.2" d="M15.8412 1.05762C15.7283 0.949219 15.5656 0.878906 15.383 0.878906H1.62031C1.275 0.878906 0.996094 1.125 0.996094 1.42969V13.5732C0.996094 13.7344 1.07578 13.8779 1.19863 13.9775L2.35742 15H15.3797C16.2729 15 17 14.3613 17 13.5703V2.08008L15.8412 1.05762Z" fill="black"/>
<path d="M1.75752 14.2422C1.41553 14.2422 1.1333 13.9961 1.1333 13.6914V1.55078C1.1333 1.24609 1.41221 1 1.75752 1H15.5202C15.8622 1 16.1444 1.24609 16.1444 1.55078V13.6943C16.1444 13.9961 15.8655 14.2451 15.5202 14.2451H1.75752V14.2422Z" fill="#FFB946"/>
<path d="M9.06663 4C7.97603 4 7.08585 4.78748 7.08587 5.75232C7.08585 6.71716 7.97603 7.50373 9.06663 7.50373C10.1572 7.50373 11.0474 6.71716 11.0474 5.75232C11.0474 4.78748 10.1572 4 9.06663 4ZM7.24836 8.00439C6.37836 8.00439 5.66663 8.62693 5.66663 9.39293V10.2476V10.4843V11.7496C5.66664 11.8879 5.79332 12 5.94959 12H12.1848C12.3406 11.9995 12.4666 11.8875 12.4666 11.7496V10.4843V10.2476V9.39293C12.4666 8.62693 11.7549 8.00439 10.8849 8.00439H7.24836Z" fill="white"/>
</g>
<defs>
<clipPath id="clip0_54_10471">
<rect width="17" height="15" fill="white"/>
</clipPath>
</defs>
</svg>
