<svg width="34" height="7" viewBox="0 0 34 7" fill="none" xmlns="http://www.w3.org/2000/svg">
<path d="M16.8281 0.379471C14.9693 0.379471 13.4624 1.7766 13.4624 3.50004C13.4624 5.22348 14.9693 6.62061 16.8281 6.62061C18.6868 6.62061 20.1937 5.22348 20.1937 3.50004C20.1937 1.7766 18.6868 0.379471 16.8281 0.379471Z" fill="#353535"/>
<path d="M30.2905 0.379471C28.4317 0.379471 26.9249 1.7766 26.9249 3.50004C26.9249 5.22348 28.4317 6.62061 30.2905 6.62061C32.1493 6.62061 33.6561 5.22348 33.6561 3.50004C33.6561 1.7766 32.1493 0.379471 30.2905 0.379471Z" fill="#353535"/>
<path d="M3.36565 0.379471C1.50688 0.379471 4.19617e-05 1.7766 4.19617e-05 3.50004C4.19617e-05 5.22348 1.50688 6.62061 3.36565 6.62061C5.22443 6.62061 6.73126 5.22348 6.73126 3.50004C6.73126 1.7766 5.22443 0.379471 3.36565 0.379471Z" fill="#353535"/>
</svg>
