<svg width="122" height="122" viewBox="0 0 122 122" fill="none" xmlns="http://www.w3.org/2000/svg">
<g opacity="0.03">
<path d="M5.97131 39.6736C5.7842 39.6736 5.59416 39.6385 5.40997 39.5596L0.901664 37.6855C0.156127 37.3756 -0.197637 36.519 0.112272 35.7763C0.422182 35.0279 1.28174 34.6741 2.02143 34.9869L6.53266 36.8639C7.2782 37.1739 7.63196 38.0276 7.31913 38.7731C7.08816 39.3345 6.54435 39.6736 5.97131 39.6736Z" fill="#13132A"/>
</g>
<path d="M61.0033 103.672C84.571 103.672 103.677 84.563 103.677 60.9953C103.677 37.4275 84.571 18.3242 61.0033 18.3242C37.4356 18.3242 18.3293 37.4275 18.3293 60.9953C18.3293 84.563 37.4356 103.672 61.0033 103.672Z" fill="#13132A"/>
<path d="M56.5976 80.0909L41.9792 63.3879C39.8537 60.9584 40.1022 57.2628 42.5318 55.1344C44.9643 53.006 48.6569 53.2545 50.7854 55.687L56.6327 62.3734L74.1572 42.51C76.2944 40.0892 79.9929 39.8611 82.4137 41.9954C84.8345 44.1326 85.0654 47.8281 82.9282 50.2489L56.5976 80.0909Z" fill="#00DD9D"/>
<path d="M85.662 121.999C85.0919 121.999 84.5452 121.659 84.3113 121.098L82.4343 116.587C82.1273 115.841 82.4781 114.988 83.2237 114.675C83.9751 114.377 84.8259 114.719 85.1358 115.464L87.0128 119.975C87.3197 120.721 86.9689 121.578 86.2234 121.89C86.0392 121.963 85.8491 121.999 85.662 121.999Z" fill="#13132A"/>
<g opacity="0.66667">
<path d="M100.921 102.383C100.546 102.383 100.172 102.24 99.8857 101.956L96.8626 98.9302C96.2925 98.3601 96.2925 97.4362 96.8626 96.8631C97.4357 96.293 98.3596 96.293 98.9297 96.8631L101.956 99.8862C102.526 100.459 102.526 101.383 101.956 101.956C101.669 102.24 101.295 102.383 100.921 102.383Z" fill="#13132A"/>
</g>
<path d="M120.535 87.1251C120.348 87.1251 120.158 87.0871 119.974 87.014L115.463 85.137C114.717 84.8271 114.366 83.9734 114.673 83.2249C114.986 82.4794 115.84 82.1373 116.588 82.4355L121.1 84.3125C121.845 84.6253 122.196 85.479 121.889 86.2246C121.655 86.7859 121.105 87.1251 120.535 87.1251Z" fill="#13132A"/>
<g opacity="0.66667">
<path d="M117.454 62.4608H113.185C112.378 62.4608 111.723 61.8059 111.723 60.9989C111.723 60.192 112.378 59.5371 113.185 59.5371H117.454C118.261 59.5371 118.916 60.192 118.916 60.9989C118.916 61.8059 118.261 62.4608 117.454 62.4608Z" fill="#13132A"/>
</g>
<g opacity="0.5">
<path d="M116.027 39.6766C115.457 39.6766 114.907 39.3374 114.673 38.7761C114.366 38.0306 114.717 37.1739 115.463 36.8611L119.974 34.9841C120.722 34.683 121.576 35.0309 121.889 35.7793C122.196 36.5219 121.845 37.3786 121.1 37.6885L116.588 39.5655C116.404 39.6415 116.214 39.6766 116.027 39.6766Z" fill="#13132A"/>
</g>
<path d="M97.8976 25.5659C97.5234 25.5659 97.1492 25.4197 96.8626 25.1361C96.2925 24.5631 96.2925 23.6421 96.8626 23.0691L99.8886 20.046C100.459 19.473 101.383 19.473 101.956 20.046C102.526 20.6161 102.526 21.5429 101.956 22.113L98.9326 25.1361C98.6461 25.4197 98.2719 25.5659 97.8976 25.5659Z" fill="#13132A"/>
<path d="M83.788 7.43396C83.6008 7.43396 83.4108 7.39887 83.2266 7.31993C82.4811 7.01003 82.1302 6.15631 82.4372 5.41078L84.3142 0.902468C84.6241 0.151084 85.4749 -0.196833 86.2263 0.113076C86.9718 0.422985 87.3227 1.27962 87.0157 2.02224L85.1387 6.53347C84.9048 7.09481 84.3581 7.43396 83.788 7.43396Z" fill="#13132A"/>
<path d="M61.0009 10.2733C60.194 10.2733 59.5391 9.61839 59.5391 8.81146V4.54289C59.5391 3.73596 60.194 3.08105 61.0009 3.08105C61.8078 3.08105 62.4627 3.73596 62.4627 4.54289V8.81146C62.4627 9.61839 61.8078 10.2733 61.0009 10.2733Z" fill="#13132A"/>
<g opacity="0.66667">
<path d="M38.2109 7.43334C37.6379 7.43334 37.0941 7.0942 36.8631 6.53285L34.9861 2.02162C34.6762 1.27901 35.0329 0.422375 35.7784 0.112466C36.521 -0.19452 37.3777 0.153398 37.6876 0.898934L39.5587 5.41016C39.8715 6.1557 39.5178 7.00941 38.7723 7.31932C38.5881 7.39826 38.398 7.43334 38.2109 7.43334Z" fill="#13132A"/>
</g>
<path d="M24.1011 25.5659C23.7269 25.5659 23.3527 25.4197 23.0661 25.1361L20.046 22.113C19.473 21.5429 19.473 20.6161 20.046 20.046C20.6161 19.473 21.5429 19.473 22.113 20.046L25.1361 23.0691C25.7062 23.6421 25.7062 24.5631 25.1361 25.1361C24.8496 25.4197 24.4754 25.5659 24.1011 25.5659Z" fill="#13132A"/>
<g opacity="0.515">
<path d="M5.97131 39.6736C5.7842 39.6736 5.59416 39.6385 5.40997 39.5596L0.901664 37.6855C0.156127 37.3756 -0.197637 36.519 0.112272 35.7763C0.422182 35.0279 1.28174 34.6741 2.02143 34.9869L6.53266 36.8639C7.2782 37.1739 7.63196 38.0276 7.31913 38.7731C7.08816 39.3345 6.54435 39.6736 5.97131 39.6736Z" fill="#13132A"/>
</g>
<path d="M8.81609 62.4608H4.54753C3.7406 62.4608 3.08569 61.8059 3.08569 60.9989C3.08569 60.192 3.7406 59.5371 4.54753 59.5371H8.81609C9.62303 59.5371 10.2779 60.192 10.2779 60.9989C10.2779 61.8059 9.62303 62.4608 8.81609 62.4608Z" fill="#13132A"/>
<g opacity="0.5">
<path d="M1.46322 87.1245C0.890184 87.1245 0.346381 86.7853 0.11541 86.224C-0.197423 85.4814 0.156342 84.6218 0.901879 84.309L5.41311 82.432C6.1528 82.1308 7.01236 82.4817 7.32227 83.2243C7.63218 83.9698 7.27841 84.8265 6.53287 85.1364L2.02457 87.0134C1.84038 87.0865 1.65034 87.1245 1.46322 87.1245Z" fill="#13132A"/>
</g>
<path d="M21.081 102.383C20.7067 102.383 20.3325 102.24 20.046 101.956C19.4759 101.383 19.4759 100.459 20.046 99.8862L23.0691 96.8631C23.6392 96.293 24.566 96.293 25.1361 96.8631C25.7092 97.4362 25.7092 98.3601 25.1361 98.9302L22.116 101.956C21.8294 102.24 21.4552 102.383 21.081 102.383Z" fill="#13132A"/>
<g opacity="0.66667">
<path d="M35.3339 118.098C34.9597 118.098 34.5854 117.955 34.2989 117.671C33.7288 117.098 33.7288 116.174 34.2989 115.601L37.322 112.578C37.8921 112.008 38.8189 112.008 39.389 112.578C39.9621 113.151 39.9621 114.075 39.389 114.645L36.3689 117.671C36.0824 117.955 35.7081 118.098 35.3339 118.098Z" fill="#13132A"/>
</g>
<path d="M61.0033 103.672C84.571 103.672 103.677 84.563 103.677 60.9953C103.677 37.4275 84.571 18.3242 61.0033 18.3242C37.4356 18.3242 18.3293 37.4275 18.3293 60.9953C18.3293 84.563 37.4356 103.672 61.0033 103.672Z" fill="#13132A"/>
<path d="M56.5976 80.0909L41.9792 63.3879C39.8537 60.9584 40.1022 57.2628 42.5318 55.1344C44.9643 53.006 48.6569 53.2545 50.7854 55.687L56.6327 62.3734L74.1572 42.51C76.2944 40.0892 79.9929 39.8611 82.4137 41.9954C84.8345 44.1326 85.0654 47.8281 82.9282 50.2489L56.5976 80.0909Z" fill="#00DD9D"/>
</svg>
