<svg width="15" height="15" viewBox="0 0 15 15" fill="none" xmlns="http://www.w3.org/2000/svg">
<path d="M2.50252 1.26393e-06C1.88254 -0.000621812 1.28445 0.229142 0.824351 0.644688C0.364252 1.06023 0.0749695 1.63192 0.0126627 2.24875C-0.0496441 2.86559 0.11947 3.48357 0.487175 3.98274C0.854879 4.4819 1.39494 4.82663 2.00252 4.95V10.05C1.56006 10.1404 1.15037 10.349 0.816953 10.6536C0.483539 10.9582 0.238859 11.3475 0.108905 11.78C-0.0210496 12.2125 -0.0314239 12.6721 0.0788837 13.11C0.189191 13.5479 0.416061 13.9478 0.735392 14.2671C1.05472 14.5865 1.45459 14.8133 1.89251 14.9236C2.33044 15.0339 2.79006 15.0236 3.22256 14.8936C3.65507 14.7637 4.04429 14.519 4.34889 14.1856C4.65348 13.8522 4.86208 13.4425 4.95252 13H9.50252C10.4308 13 11.321 12.6313 11.9774 11.9749C12.6338 11.3185 13.0025 10.4283 13.0025 9.5V7.95C13.6095 7.82609 14.1489 7.48121 14.5161 6.98221C14.8833 6.48321 15.0521 5.86564 14.9899 5.24924C14.9276 4.63284 14.6387 4.06151 14.1791 3.64603C13.7195 3.23055 13.1221 3.00051 12.5025 3.00051C11.883 3.00051 11.2855 3.23055 10.8259 3.64603C10.3664 4.06151 10.0774 4.63284 10.0152 5.24924C9.95291 5.86564 10.1217 6.48321 10.4889 6.98221C10.8561 7.48121 11.3955 7.82609 12.0025 7.95V9.5C12.0025 9.82831 11.9379 10.1534 11.8122 10.4567C11.6866 10.76 11.5024 11.0356 11.2703 11.2678C11.0381 11.4999 10.7625 11.6841 10.4592 11.8097C10.1559 11.9353 9.83082 12 9.50252 12H4.95252C4.85417 11.5197 4.61695 11.0789 4.27029 10.7322C3.92363 10.3856 3.4828 10.1483 3.00252 10.05V4.95C3.6101 4.82663 4.15016 4.4819 4.51786 3.98274C4.88557 3.48357 5.05468 2.86559 4.99237 2.24875C4.93007 1.63192 4.64078 1.06023 4.18069 0.644688C3.72059 0.229142 3.12249 -0.000621812 2.50252 1.26393e-06Z" fill="white"/>
</svg>
