<svg width="122" height="122" viewBox="0 0 122 122" fill="none" xmlns="http://www.w3.org/2000/svg">
<g opacity="0.03">
<path d="M5.97131 39.6731C5.7842 39.6731 5.59416 39.638 5.40997 39.5591L0.901664 37.685C0.156127 37.3751 -0.197637 36.5185 0.112272 35.7759C0.422182 35.0274 1.28174 34.6736 2.02143 34.9865L6.53266 36.8635C7.2782 37.1734 7.63196 38.0271 7.31913 38.7726C7.08816 39.334 6.54435 39.6731 5.97131 39.6731Z" fill="#13132A"/>
</g>
<path d="M61.0031 103.672C84.5708 103.672 103.677 84.563 103.677 60.9953C103.677 37.4275 84.5708 18.3242 61.0031 18.3242C37.4353 18.3242 18.3291 37.4275 18.3291 60.9953C18.3291 84.563 37.4353 103.672 61.0031 103.672Z" fill="#13132A"/>
<path d="M56.5976 80.0909L41.9792 63.3879C39.8537 60.9584 40.1022 57.2628 42.5318 55.1344C44.9643 53.006 48.6569 53.2545 50.7854 55.687L56.6327 62.3734L74.1572 42.51C76.2944 40.0892 79.9929 39.8611 82.4137 41.9954C84.8345 44.1326 85.0654 47.8281 82.9282 50.2489L56.5976 80.0909Z" fill="#00DD9D"/>
<path d="M85.662 121.999C85.0919 121.999 84.5452 121.659 84.3113 121.098L82.4343 116.587C82.1273 115.841 82.4781 114.988 83.2237 114.675C83.9751 114.377 84.8259 114.719 85.1358 115.464L87.0128 119.975C87.3197 120.721 86.9689 121.578 86.2234 121.89C86.0392 121.963 85.8491 121.999 85.662 121.999Z" fill="#13132A"/>
<g opacity="0.66667">
<path d="M100.921 102.383C100.547 102.383 100.173 102.24 99.8862 101.956L96.8631 98.9302C96.293 98.3601 96.293 97.4362 96.8631 96.8631C97.4362 96.293 98.3601 96.293 98.9302 96.8631L101.956 99.8862C102.526 100.459 102.526 101.383 101.956 101.956C101.67 102.24 101.295 102.383 100.921 102.383Z" fill="#13132A"/>
</g>
<path d="M120.536 87.1251C120.348 87.1251 120.158 87.0871 119.974 87.014L115.463 85.137C114.717 84.8271 114.367 83.9734 114.674 83.2249C114.986 82.4794 115.84 82.1373 116.589 82.4355L121.1 84.3125C121.845 84.6253 122.196 85.479 121.889 86.2246C121.655 86.7859 121.106 87.1251 120.536 87.1251Z" fill="#13132A"/>
<g opacity="0.66667">
<path d="M117.454 62.4608H113.185C112.379 62.4608 111.724 61.8059 111.724 60.9989C111.724 60.192 112.379 59.5371 113.185 59.5371H117.454C118.261 59.5371 118.916 60.192 118.916 60.9989C118.916 61.8059 118.261 62.4608 117.454 62.4608Z" fill="#13132A"/>
</g>
<g opacity="0.5">
<path d="M116.027 39.6761C115.457 39.6761 114.907 39.337 114.674 38.7756C114.367 38.0301 114.717 37.1734 115.463 36.8606L119.974 34.9836C120.723 34.6825 121.576 35.0304 121.889 35.7788C122.196 36.5215 121.845 37.3781 121.1 37.688L116.589 39.565C116.404 39.641 116.214 39.6761 116.027 39.6761Z" fill="#13132A"/>
</g>
<path d="M97.8981 25.5659C97.5239 25.5659 97.1497 25.4197 96.8631 25.1361C96.293 24.5631 96.293 23.6421 96.8631 23.0691L99.8891 20.046C100.459 19.473 101.383 19.473 101.956 20.046C102.526 20.6161 102.526 21.5429 101.956 22.113L98.9331 25.1361C98.6466 25.4197 98.2723 25.5659 97.8981 25.5659Z" fill="#13132A"/>
<path d="M83.788 7.43396C83.6008 7.43396 83.4108 7.39887 83.2266 7.31993C82.4811 7.01003 82.1302 6.15631 82.4372 5.41078L84.3142 0.902468C84.6241 0.151084 85.4749 -0.196833 86.2263 0.113076C86.9718 0.422985 87.3227 1.27962 87.0157 2.02224L85.1387 6.53347C84.9048 7.09481 84.3581 7.43396 83.788 7.43396Z" fill="#13132A"/>
<path d="M61.0009 10.2728C60.194 10.2728 59.5391 9.61791 59.5391 8.81097V4.5424C59.5391 3.73547 60.194 3.08057 61.0009 3.08057C61.8078 3.08057 62.4627 3.73547 62.4627 4.5424V8.81097C62.4627 9.61791 61.8078 10.2728 61.0009 10.2728Z" fill="#13132A"/>
<g opacity="0.66667">
<path d="M38.2107 7.43383C37.6376 7.43383 37.0938 7.09469 36.8628 6.53334L34.9859 2.02211C34.6759 1.2795 35.0326 0.422864 35.7782 0.112954C36.5208 -0.194031 37.3774 0.153886 37.6873 0.899422L39.5585 5.41065C39.8713 6.15619 39.5175 7.0099 38.772 7.31981C38.5878 7.39875 38.3978 7.43383 38.2107 7.43383Z" fill="#13132A"/>
</g>
<path d="M24.1011 25.5664C23.7269 25.5664 23.3527 25.4202 23.0661 25.1366L20.046 22.1135C19.473 21.5434 19.473 20.6166 20.046 20.0465C20.6161 19.4734 21.5429 19.4734 22.113 20.0465L25.1361 23.0696C25.7062 23.6426 25.7062 24.5636 25.1361 25.1366C24.8496 25.4202 24.4754 25.5664 24.1011 25.5664Z" fill="#13132A"/>
<g opacity="0.515">
<path d="M5.97131 39.6731C5.7842 39.6731 5.59416 39.638 5.40997 39.5591L0.901664 37.685C0.156127 37.3751 -0.197637 36.5185 0.112272 35.7759C0.422182 35.0274 1.28174 34.6736 2.02143 34.9865L6.53266 36.8635C7.2782 37.1734 7.63196 38.0271 7.31913 38.7726C7.08816 39.334 6.54435 39.6731 5.97131 39.6731Z" fill="#13132A"/>
</g>
<path d="M8.81634 62.4608H4.54777C3.74084 62.4608 3.08594 61.8059 3.08594 60.9989C3.08594 60.192 3.74084 59.5371 4.54777 59.5371H8.81634C9.62327 59.5371 10.2782 60.192 10.2782 60.9989C10.2782 61.8059 9.62327 62.4608 8.81634 62.4608Z" fill="#13132A"/>
<g opacity="0.5">
<path d="M1.46274 87.1245C0.889696 87.1245 0.345892 86.7853 0.114922 86.224C-0.197911 85.4814 0.155853 84.6218 0.90139 84.309L5.41262 82.432C6.15231 82.1308 7.01187 82.4817 7.32178 83.2243C7.63169 83.9698 7.27792 84.8265 6.53239 85.1364L2.02408 87.0134C1.83989 87.0865 1.64985 87.1245 1.46274 87.1245Z" fill="#13132A"/>
</g>
<path d="M21.0807 102.383C20.7065 102.383 20.3323 102.24 20.0458 101.956C19.4756 101.383 19.4756 100.459 20.0458 99.8862L23.0688 96.8631C23.6389 96.293 24.5658 96.293 25.1359 96.8631C25.7089 97.4362 25.7089 98.3601 25.1359 98.9302L22.1157 101.956C21.8292 102.24 21.455 102.383 21.0807 102.383Z" fill="#13132A"/>
<g opacity="0.66667">
<path d="M35.3337 118.098C34.9594 118.098 34.5852 117.955 34.2987 117.671C33.7286 117.098 33.7286 116.174 34.2987 115.601L37.3218 112.578C37.8919 112.008 38.8187 112.008 39.3888 112.578C39.9618 113.151 39.9618 114.075 39.3888 114.645L36.3686 117.671C36.0821 117.955 35.7079 118.098 35.3337 118.098Z" fill="#13132A"/>
</g>
<path d="M61.0031 103.672C84.5708 103.672 103.677 84.563 103.677 60.9953C103.677 37.4275 84.5708 18.3242 61.0031 18.3242C37.4353 18.3242 18.3291 37.4275 18.3291 60.9953C18.3291 84.563 37.4353 103.672 61.0031 103.672Z" fill="#13132A"/>
<path d="M56.5976 80.0909L41.9792 63.3879C39.8537 60.9584 40.1022 57.2628 42.5318 55.1344C44.9643 53.006 48.6569 53.2545 50.7854 55.687L56.6327 62.3734L74.1572 42.51C76.2944 40.0892 79.9929 39.8611 82.4137 41.9954C84.8345 44.1326 85.0654 47.8281 82.9282 50.2489L56.5976 80.0909Z" fill="#00DD9D"/>
</svg>
