<svg width="13" height="13" viewBox="0 0 13 13" fill="none" xmlns="http://www.w3.org/2000/svg">
<path d="M11.6071 7.14286H7.14286V11.6071C7.14286 11.8439 7.04879 12.071 6.88135 12.2385C6.7139 12.4059 6.4868 12.5 6.25 12.5C6.0132 12.5 5.7861 12.4059 5.61866 12.2385C5.45121 12.071 5.35714 11.8439 5.35714 11.6071V7.14286H0.892857C0.656057 7.14286 0.428955 7.04879 0.261512 6.88135C0.0940688 6.7139 0 6.4868 0 6.25C0 6.0132 0.0940688 5.7861 0.261512 5.61866C0.428955 5.45121 0.656057 5.35714 0.892857 5.35714H5.35714V0.892857C5.35714 0.656057 5.45121 0.428955 5.61866 0.261512C5.7861 0.0940684 6.0132 0 6.25 0C6.4868 0 6.7139 0.0940684 6.88135 0.261512C7.04879 0.428955 7.14286 0.656057 7.14286 0.892857V5.35714H11.6071C11.8439 5.35714 12.071 5.45121 12.2385 5.61866C12.4059 5.7861 12.5 6.0132 12.5 6.25C12.5 6.4868 12.4059 6.7139 12.2385 6.88135C12.071 7.04879 11.8439 7.14286 11.6071 7.14286Z" fill="white"/>
</svg>
