<svg width="34" height="8" viewBox="0 0 34 8" fill="none" xmlns="http://www.w3.org/2000/svg">
<path d="M16.8282 0.878983C14.9695 0.878983 13.4626 2.27611 13.4626 3.99955C13.4626 5.72299 14.9695 7.12012 16.8282 7.12012C18.687 7.12012 20.1938 5.72299 20.1938 3.99955C20.1938 2.27611 18.687 0.878983 16.8282 0.878983Z" fill="#353535"/>
<path d="M30.2906 0.878983C28.4319 0.878983 26.925 2.27611 26.925 3.99955C26.925 5.72299 28.4319 7.12012 30.2906 7.12012C32.1494 7.12012 33.6562 5.72299 33.6562 3.99955C33.6562 2.27611 32.1494 0.878983 30.2906 0.878983Z" fill="#353535"/>
<path d="M3.36584 0.878983C1.50706 0.878983 0.000225067 2.27611 0.000225067 3.99955C0.000225067 5.72299 1.50706 7.12012 3.36584 7.12012C5.22461 7.12012 6.73145 5.72299 6.73145 3.99955C6.73145 2.27611 5.22461 0.878983 3.36584 0.878983Z" fill="#353535"/>
</svg>
