<svg width="15" height="10" viewBox="0 0 15 10" fill="none" xmlns="http://www.w3.org/2000/svg">
<path d="M15 6.625C15 7 14.25 7.25 13.375 7.375C12.8125 6.3125 11.6875 5.5 10.375 4.9375C10.5 4.75 10.625 4.625 10.75 4.4375H11.25C13.1875 4.375 15 5.5625 15 6.625ZM4.25 4.375H3.75C1.8125 4.375 0 5.5625 0 6.625C0 7 0.75 7.25 1.625 7.375C2.1875 6.3125 3.3125 5.5 4.625 4.9375L4.25 4.375ZM7.5 5C8.875 5 10 3.875 10 2.5C10 1.125 8.875 0 7.5 0C6.125 0 5 1.125 5 2.5C5 3.875 6.125 5 7.5 5ZM7.5 5.625C4.9375 5.625 2.5 7.25 2.5 8.75C2.5 10 7.5 10 7.5 10C7.5 10 12.5 10 12.5 8.75C12.5 7.25 10.0625 5.625 7.5 5.625ZM11.0625 3.75H11.25C12.3125 3.75 13.125 2.9375 13.125 1.875C13.125 0.8125 12.3125 0 11.25 0C10.9375 0 10.6875 0.0625001 10.4375 0.1875C10.9375 0.8125 11.25 1.625 11.25 2.5C11.25 2.9375 11.1875 3.375 11.0625 3.75ZM3.75 3.75H3.9375C3.8125 3.375 3.75 2.9375 3.75 2.5C3.75 1.625 4.0625 0.8125 4.5625 0.1875C4.3125 0.0625001 4.0625 0 3.75 0C2.6875 0 1.875 0.8125 1.875 1.875C1.875 2.9375 2.6875 3.75 3.75 3.75Z" fill="white"/>
</svg>
