<svg width="202" height="55" viewBox="0 0 202 55" fill="none" xmlns="http://www.w3.org/2000/svg">
<path d="M162.362 0H201.827C199.85 9.35817 197.886 18.6476 195.905 28.0314C196.934 28.1533 197.839 28.0956 198.746 28.0663C199.504 28.0424 200.274 28.0388 201.021 28.1496C202.036 28.299 202.289 29.0596 201.653 29.8835C201.224 30.4498 200.62 30.8594 199.935 31.0491C198.822 31.3524 197.687 31.5779 196.555 31.8042C196.11 31.8958 195.648 31.8958 195.073 31.9481C193.493 39.4533 191.911 46.9677 190.326 54.4913H150.954C150.954 54.2997 150.924 54.1247 150.954 53.9616C153.282 42.9246 155.614 31.8882 157.95 20.8524C158.046 20.4698 158.022 20.0667 157.88 19.6987C157.028 17.5113 156.916 15.2203 157.2 12.9348C157.413 11.2166 157.871 9.52953 158.208 7.82597C158.494 6.3854 159.255 5.69994 160.756 5.76592C160.879 5.75739 161.002 5.73932 161.123 5.71186C161.532 3.84151 161.943 1.94824 162.362 0ZM189.783 26.3086L189.971 26.1519C189.88 25.3052 189.829 24.4538 189.703 23.6135C189.472 22.0886 189.02 20.6453 188.027 19.4165C187.432 18.6833 186.885 17.9062 186.28 17.1796C185.944 16.7754 185.77 16.3548 185.877 15.8416C186.021 15.1516 185.749 14.6182 185.327 14.084C183.567 11.837 181.504 9.89151 179.371 8.01566C179.168 7.83292 178.92 7.70654 178.653 7.6491C177.423 7.43528 176.189 7.24528 174.951 7.07911C173.674 6.90866 172.464 7.07911 171.4 7.88736C171.07 8.13937 170.692 8.19802 170.274 8.13204C168.467 7.84796 166.658 7.5822 164.849 7.30729C163.552 7.11393 162.256 6.91141 160.955 6.75196C160.15 6.6539 159.436 6.89858 159.24 7.85162C159.021 8.92563 158.673 9.97398 158.466 11.0489C158.07 13.0952 157.862 15.1534 158.283 17.23C159.162 21.5535 161.765 24.4777 165.705 26.2582C169.247 27.8573 173.025 28.2981 176.869 28.3366C177.036 28.3444 177.203 28.3102 177.353 28.2371C177.504 28.1639 177.634 28.0541 177.731 27.9178C177.979 27.6093 178.206 27.2838 178.408 26.9437C178.951 25.976 178.922 25.8495 178.151 25.0761C178.08 24.9895 178.019 24.8959 177.968 24.7966C178.899 22.8932 180.625 21.9659 182.956 22.0694C183.442 22.0826 183.911 22.2552 184.291 22.5606C185.377 23.4006 186.486 24.2104 187.617 24.9899C188.317 25.4683 189.064 25.8715 189.786 26.3086H189.783ZM175.852 30.3068C172.547 30.1923 169.377 29.8431 166.39 28.5382C163.381 27.2232 161.025 25.1283 159.186 22.4048L159.003 22.4854C157.793 28.2834 156.585 34.0805 155.368 39.9133C156.247 40.1223 156.97 40.2506 157.778 39.9417C159.829 39.1582 161.924 38.4911 163.982 37.7268C164.565 37.5106 164.981 37.582 165.478 37.944C168.615 40.2222 171.775 42.4682 174.925 44.7253C175.085 44.8398 175.23 44.9745 175.451 45.156L171.372 47.7485C173.436 49.4896 175.36 51.1391 177.42 52.6887C177.328 51.2866 177.941 50.1375 178.408 48.9489C178.666 48.2965 178.958 47.655 179.187 46.9943C179.314 46.654 179.382 46.295 179.389 45.9322C179.384 45.0158 179.305 44.0994 179.297 43.183C179.297 42.7569 179.175 42.3397 178.944 41.9816C178.087 40.607 177.329 39.1683 176.385 37.8579C175.542 36.6895 175.306 35.5797 175.853 34.2216C176.364 32.9662 175.92 31.6631 175.852 30.3068ZM164.634 38.8842C164.634 40.4531 164.609 41.8533 164.644 43.2517C164.67 43.9809 164.533 44.7066 164.243 45.3759C163.562 46.9402 162.996 48.5586 162.242 50.0843C161.699 51.184 161.745 52.0949 162.624 53.0764C164.81 53.058 167.103 53.1203 169.486 53.0333C169.381 52.7437 169.349 52.5613 169.257 52.4156C168.839 51.754 168.834 51.0841 169.004 50.3235C169.493 48.1242 169.871 45.9029 170.363 43.7054C170.496 43.1097 170.328 42.8192 169.873 42.5076C168.39 41.4914 166.931 40.4403 165.46 39.4057C165.242 39.2508 165.01 39.1197 164.634 38.8842ZM179.916 25.0174C180.238 25.3116 180.501 25.6085 180.818 25.8321C181.961 26.6413 183.072 27.5118 184.285 28.2019C188.612 30.6642 193.225 31.6961 198.177 30.689C198.942 30.5332 199.683 30.2216 200.407 29.9137C200.76 29.7643 201.08 29.4738 200.844 28.8598C200.304 28.8598 199.735 28.8415 199.167 28.8598C197.459 28.9258 195.761 28.9515 194.072 28.5849C190.552 27.8124 187.449 26.1831 184.558 24.0882C183.073 23.0105 181.057 23.378 179.916 25.0165V25.0174ZM188.072 43.095C187.99 43.0624 187.905 43.037 187.819 43.019C186.421 42.9484 186.021 42.4197 186.439 41.0717C186.724 40.1709 187.056 39.286 187.435 38.4205C188.122 36.8251 188.864 35.2526 189.558 33.6553C189.833 33.0138 190.066 32.3559 189.913 31.7914L184.447 29.8175C184.474 30.0493 184.519 30.2821 184.524 30.5176C184.545 31.3369 184.633 32.1671 184.545 32.9744C184.403 34.2748 184.098 35.5568 183.942 36.8563C183.758 38.3674 183.625 39.8868 183.541 41.4061C183.492 42.3309 183.779 43.2421 184.349 43.972C185.031 44.8692 185.958 45.255 187.071 45.1633C188.068 45.0717 188.354 44.7051 188.228 43.7374C188.188 43.5201 188.135 43.3053 188.07 43.0941L188.072 43.095Z" fill="#E7BA3B"/>
<path d="M82.5116 23.8833C82.9992 24.0318 83.3501 24.128 83.6929 24.2499C85.544 24.884 86.6409 26.3347 86.7417 28.2903C86.8562 30.5079 86.124 32.4424 84.6835 34.0956C82.6757 36.4012 80.1336 37.6539 77.0573 37.6952C74.3081 37.7318 71.5589 37.708 68.8098 37.7034C67.8549 37.7034 67.7266 37.5449 67.9145 36.6276C69.5536 28.6189 71.1957 20.6106 72.841 12.6026C73.0508 11.5817 73.2176 11.4498 74.2476 11.4507C76.0804 11.4507 77.9132 11.4507 79.746 11.4736C81.0656 11.4873 82.3723 11.6495 83.6067 12.1325C84.2623 12.3793 84.884 12.7081 85.4569 13.1112C87.0322 14.2567 87.462 15.8851 87.209 17.7362C86.8425 20.4487 85.4358 22.4309 82.9643 23.6396C82.8571 23.6882 82.7536 23.7505 82.5116 23.8833ZM74.7223 25.8517C74.1258 28.7979 73.5411 31.6818 72.9555 34.5666C74.3127 34.8049 77.1819 34.6931 78.299 34.3833C79.9833 33.9251 81.1398 32.8878 81.697 31.2264C81.871 30.7069 81.9938 30.1716 82.0635 29.6282C82.2972 27.811 81.3716 26.4254 79.5893 26.0231C78.0039 25.6694 76.3856 25.838 74.7251 25.8517H74.7223ZM75.3537 22.8002C76.0868 22.8002 76.7228 22.8002 77.3579 22.8002C78.7285 22.7923 80.0412 22.2468 81.0136 21.2809C81.9861 20.315 82.5404 19.0059 82.5575 17.6354C82.5868 16.1041 81.8922 15.1611 80.4259 14.7534C79.3263 14.4491 78.2074 14.5261 77.049 14.5545C76.4845 17.3137 75.9301 20.0116 75.3565 22.8002H75.3537Z" fill="white"/>
<path d="M102.258 34.7607C101.865 35.1703 101.609 35.4654 101.325 35.7302C98.8687 38.0212 95.9931 38.6874 92.7619 37.9057C90.9722 37.4723 89.8725 36.2929 89.2924 34.5802C88.8012 33.1277 88.7985 31.6312 88.9589 30.1394C89.1852 28.0317 89.6507 25.9753 90.5928 24.071C91.0527 23.1078 91.6252 22.2026 92.2982 21.3741C94.5745 18.6552 97.5518 17.8588 100.954 18.4948C101.544 18.601 102.107 18.823 102.61 19.1482C103.114 19.4733 103.548 19.895 103.887 20.389C103.991 20.5365 104.109 20.6767 104.223 20.8178C104.238 20.8352 104.274 20.8343 104.397 20.8701C104.581 20.4119 104.779 19.9473 104.954 19.4717C105.137 18.9805 105.447 18.7386 105.988 18.7605C106.751 18.7862 107.516 18.7532 108.279 18.7706C109.022 18.788 109.14 18.9356 108.996 19.6641C108.398 22.6864 107.795 25.7071 107.187 28.7263C106.929 30.0092 106.653 31.2922 106.409 32.5824C106.336 32.9726 106.308 33.3698 106.324 33.7664C106.351 34.3731 106.498 34.5793 107.117 34.6966C107.617 34.7882 107.716 35.0512 107.639 35.4663C107.538 36.0052 107.413 36.5403 107.3 37.0773C107.201 37.5456 106.884 37.7463 106.437 37.7188C105.768 37.6982 105.1 37.6407 104.438 37.5465C103.246 37.3477 102.57 36.5916 102.356 35.4132C102.326 35.2629 102.309 35.1117 102.258 34.7607ZM93.2512 31.5689C93.2815 31.9895 93.2796 32.5137 93.3658 33.0223C93.5683 34.2136 94.2299 34.9202 95.3901 35.075C97.8249 35.4013 99.907 34.7405 101.255 32.5806C102.754 30.1824 103.286 27.4992 103.179 24.6997C103.136 23.5588 102.674 22.5626 101.633 21.9404C99.6091 20.7299 96.7665 21.3668 95.4808 23.3471C95.1125 23.9077 94.8053 24.5061 94.5644 25.1322C93.7956 27.1675 93.3942 29.2908 93.2512 31.5643V31.5689Z" fill="white"/>
<path d="M140.661 27.927C142.662 31.1728 144.693 34.2729 146.697 37.5665C146.314 37.6416 146.094 37.7195 145.873 37.7222C144.804 37.7351 143.735 37.703 142.665 37.7378C141.968 37.7598 141.539 37.4721 141.199 36.8727C139.984 34.7201 138.735 32.5877 137.496 30.4498C137.347 30.195 137.185 29.9485 136.932 29.5435C136.674 30.7778 136.446 31.8427 136.228 32.9103C135.97 34.1648 135.724 35.4212 135.468 36.6757C135.285 37.5921 135.125 37.7204 134.175 37.7259C133.177 37.7314 132.179 37.7149 131.067 37.7076C131.097 37.2301 131.077 36.8727 131.146 36.5337C132.638 29.2459 134.135 21.9585 135.636 14.6714C135.704 14.3451 135.707 14.0171 136.078 13.8311C137.544 13.0979 139.011 12.3401 140.66 11.4961C139.609 16.6664 138.594 21.6589 137.578 26.6523L137.752 26.7641C137.96 26.5689 138.175 26.3801 138.377 26.1776C140.537 24.0204 142.711 21.8705 144.845 19.6932C145.491 19.0325 146.187 18.709 147.117 18.7667C148.047 18.8245 148.977 18.7796 149.951 18.8849C149.465 19.6364 148.812 20.1679 148.218 20.747C147.605 21.3445 146.976 21.9237 146.356 22.512C145.713 23.1229 145.072 23.7339 144.431 24.3448C143.811 24.9331 143.19 25.5211 142.569 26.1088C141.953 26.6962 141.337 27.2818 140.661 27.927Z" fill="white"/>
<path d="M117.447 21.715C117.89 21.2045 118.206 20.8435 118.521 20.4815C120.262 18.4765 122.476 17.9367 124.991 18.4957C128.544 19.2856 129.531 22.1017 129.15 24.6254C128.818 26.8248 128.289 28.9929 127.874 31.1804C127.727 31.9282 127.632 32.685 127.589 33.4457C127.548 34.2576 127.686 34.4271 128.465 34.6892C128.846 34.8166 128.937 35.0558 128.878 35.3838C128.774 35.9529 128.652 36.5202 128.511 37.0828C128.412 37.4879 128.131 37.7243 127.711 37.6886C126.897 37.6134 126.053 37.6052 125.278 37.3761C123.772 36.9316 122.967 35.7266 123.073 33.9854C123.146 32.7758 123.439 31.5772 123.659 30.3794C123.95 28.8216 124.286 27.271 124.57 25.7114C124.73 24.8344 124.739 23.951 124.478 23.0804C124.158 21.9862 123.422 21.4016 122.279 21.3677C120.798 21.3237 119.609 21.8983 118.725 23.0886C118.002 24.0628 117.582 25.1743 117.331 26.3455C116.604 29.7453 115.9 33.1497 115.181 36.5513C114.949 37.6437 114.875 37.6977 113.801 37.7023C113.037 37.7023 112.274 37.7142 111.51 37.7023C110.732 37.6876 110.593 37.5401 110.734 36.752C111.046 35.0732 111.399 33.4017 111.735 31.7275C112.277 29.0363 112.817 26.3452 113.356 23.6541C113.426 23.3576 113.455 23.053 113.442 22.7487C113.403 22.2648 113.206 21.9019 112.649 21.7755C112.053 21.6389 112.036 21.5592 112.139 20.9507C112.216 20.4998 112.3 20.0499 112.407 19.6045C112.564 18.942 112.745 18.7605 113.408 18.7798C114.136 18.8027 114.875 18.8467 115.583 19.008C116.639 19.2481 117.269 19.9418 117.359 21.0625C117.375 21.2036 117.399 21.3493 117.447 21.715Z" fill="white"/>
<path d="M9.18995 14.7234C8.64011 17.3874 8.10494 20.0027 7.54961 22.7052C7.87035 22.7317 8.12785 22.7711 8.38627 22.7721C10.2786 22.7776 12.1719 22.7721 14.0679 22.7721C14.2814 22.7721 14.4958 22.7611 14.7094 22.7776C15.2812 22.8197 15.4205 22.97 15.3343 23.5153C15.2482 24.0605 15.1382 24.5966 15.0081 25.129C14.8248 25.8878 14.604 26.061 13.7838 26.0692C12.4404 26.083 11.097 26.0692 9.75169 26.0692H6.85774C6.59473 27.3403 6.34273 28.5563 6.09163 29.7724C5.61878 32.0716 5.15509 34.3726 4.67032 36.6691C4.47421 37.5992 4.37432 37.6661 3.45702 37.6771C2.63227 37.6839 1.80752 37.6839 0.982765 37.6771C0.00406153 37.6689 -0.116902 37.5158 0.0792054 36.5225C0.31655 35.3257 0.567641 34.1325 0.812317 32.9385C2.20095 26.1902 3.58959 19.4422 4.97822 12.6945C5.02401 12.4555 5.08244 12.219 5.15325 11.9862C5.26689 11.626 5.52531 11.4363 5.90377 11.4281C6.14753 11.4208 6.39221 11.4217 6.63689 11.4217L18.1751 11.4372L18.9083 11.4418C19.3243 11.4418 19.558 11.6508 19.4883 12.0686C19.3729 12.7596 19.2327 13.4478 19.0695 14.1287C18.9779 14.4952 18.6737 14.6611 18.3181 14.7033C18.0742 14.7227 17.8295 14.7279 17.585 14.7188H9.18995V14.7234Z" fill="white"/>
<path d="M44.2536 38.0591C42.9793 38.0559 41.7136 37.8505 40.5037 37.4507C39.9558 37.2687 39.4397 37.0022 38.9742 36.6607C38.4336 36.2584 38.4354 35.8461 38.8267 35.3155C38.8633 35.2669 38.9064 35.2238 38.9477 35.178C40.2902 33.7118 39.9429 33.8474 41.6272 34.3963C43.2492 34.926 44.8959 35.1487 46.5903 34.9233C47.9173 34.7464 48.9785 34.1901 49.4082 32.8073C49.6648 31.9826 49.5063 31.4382 48.7466 31.0323C48.0959 30.701 47.4221 30.4171 46.7305 30.1828C45.9855 29.9134 45.2277 29.6705 44.4625 29.4698C41.5126 28.6964 40.7465 26.4934 41.3917 23.8799C42.0982 21.0189 43.9841 19.2182 46.8359 18.5281C49.1645 17.9431 51.6185 18.1089 53.8472 19.0019C54.3272 19.1959 54.7775 19.4563 55.1852 19.7753C55.6479 20.1355 55.6434 20.3985 55.2768 20.8613C54.9625 21.2452 54.5959 21.5788 54.321 21.9774C54.0461 22.3761 53.7336 22.3706 53.3615 22.2523C52.7521 22.0581 52.1482 21.8436 51.5407 21.642C50.4758 21.2883 49.378 21.2571 48.2792 21.3671C46.9147 21.5082 45.9681 22.3165 45.6364 23.5499C45.3825 24.4947 45.6685 25.1005 46.5968 25.4111C47.7816 25.8079 48.9904 26.1351 50.1771 26.5264C50.8444 26.7362 51.4946 26.9972 52.1217 27.3071C53.313 27.9175 53.9013 28.9374 53.937 30.2717C54.0067 32.8815 53.0151 34.9599 50.8314 36.4335C48.9638 37.6926 46.8634 38.0903 44.2536 38.0591Z" fill="white"/>
<path d="M60.2911 21.5893C59.6844 21.5893 59.1447 21.603 58.6067 21.5893C57.913 21.5664 57.782 21.4252 57.9066 20.7645C58.3245 18.4836 58.2347 18.7393 60.2214 18.7265C60.4313 18.7265 60.6402 18.7054 60.9353 18.6898C61.1057 17.8422 61.3119 17.0202 61.4246 16.1853C61.4998 15.6355 61.7591 15.334 62.2494 15.0994C63.3766 14.5587 64.4771 13.9622 65.5905 13.3922C65.8288 13.2703 66.0781 13.1695 66.4749 12.988C66.0991 14.9436 65.75 16.7562 65.3752 18.6889C65.783 18.7036 66.1083 18.7191 66.4254 18.7265C66.9138 18.7384 67.4022 18.7265 67.8916 18.7595C68.2646 18.7805 68.4497 19.0151 68.3837 19.3789C68.2811 19.948 68.1647 20.5171 68.0126 21.0752C67.8861 21.5389 67.4847 21.6323 67.0678 21.6369C66.3347 21.6461 65.6098 21.6369 64.8116 21.6369C64.5706 22.8282 64.3388 23.9508 64.1124 25.078C63.6258 27.4991 63.1365 29.9202 62.6618 32.3431C62.5897 32.6702 62.5666 33.0062 62.593 33.3401C62.6746 34.0934 63.1658 34.5443 63.9145 34.6167C64.0657 34.6313 64.2205 34.6167 64.3727 34.6277C65.0609 34.6854 65.191 34.8293 65.0801 35.4836C64.9931 35.994 64.8693 36.4989 64.7484 37.0029C64.6567 37.397 64.4112 37.6719 63.9878 37.6701C63.0118 37.6701 62.0221 37.7324 61.0636 37.5931C59.0549 37.3017 58.0322 36.0655 58.0203 34.0008C58.0302 33.2994 58.11 32.6007 58.2585 31.9151C58.9 28.6546 59.568 25.3987 60.2251 22.1409C60.2507 21.9998 60.2581 21.8559 60.2911 21.5893Z" fill="white"/>
<path d="M34.1698 20.8314C35.2695 19.7638 36.3792 18.8639 37.8601 18.6201C38.6647 18.4872 39.4711 18.336 40.393 18.5367C40.1511 19.6932 39.9348 20.7901 39.6883 21.8816C39.6095 22.2371 39.3217 22.3397 38.9827 22.3269C38.6436 22.3141 38.3128 22.2765 37.9746 22.2793C36.0502 22.293 34.6903 23.2387 34.146 25.0825C33.7574 26.3948 33.5109 27.7501 33.2177 29.0899C32.6587 31.6448 32.1125 34.2107 31.5535 36.7765C31.3574 37.6764 31.1677 37.8267 30.2522 37.8359C29.5503 37.8432 28.8474 37.8359 28.1445 37.8359C27.0669 37.8286 26.9532 37.7067 27.1713 36.673C27.7413 33.9577 28.3251 31.2452 28.9061 28.5327C29.224 27.0417 29.5549 25.5535 29.8618 24.0607C29.9439 23.6726 29.9869 23.2771 29.9901 22.8804C29.9901 22.1922 29.8353 21.964 29.1471 21.7917C28.7246 21.6836 28.5752 21.4701 28.6467 21.0806C28.7524 20.5112 28.8725 19.9449 29.0069 19.3816C29.104 18.9812 29.3826 18.72 29.7959 18.7484C30.7654 18.8153 31.7469 18.8547 32.6944 19.0462C33.5421 19.2167 34.0296 19.86 34.1698 20.8314Z" fill="white"/>
<path d="M23.1988 18.8413C23.6569 18.8413 24.1151 18.8193 24.5733 18.8468C25.2148 18.8853 25.3733 19.0924 25.2377 19.7311C24.7649 21.9662 24.2737 24.1967 23.7944 26.4309C23.3057 28.6913 22.8255 30.9554 22.3538 33.2231C22.2822 33.519 22.2629 33.8251 22.297 34.1276C22.3703 34.6106 22.4803 35.0908 23.1374 35.1467C23.5525 35.1815 23.6716 35.4848 23.5836 35.8798C23.4718 36.3856 23.4004 36.9006 23.2711 37.401C23.119 37.9948 22.8643 38.2147 22.2127 38.1753C21.4888 38.1322 20.7465 38.0553 20.0546 37.8601C18.6626 37.4679 17.9277 36.4553 17.8553 35.0403C17.8232 34.2492 17.8922 33.4571 18.0606 32.6834C18.9485 28.4552 19.8741 24.2315 20.7905 20.007C21.0141 18.976 21.1634 18.856 22.1926 18.8432C22.528 18.8432 22.8634 18.8432 23.2006 18.8432L23.1988 18.8413Z" fill="white"/>
<path d="M125.272 44.8335C124.448 44.3607 124.109 43.699 124.334 42.8175C124.582 41.8479 125.105 41.1056 126.083 40.7437C126.948 40.4239 127.892 40.3848 128.781 40.6319C129.85 40.9132 130.345 41.9515 129.904 43.1254C129.732 43.5836 129.339 43.9721 129.001 44.3506C128.827 44.5448 128.552 44.6484 128.331 44.7877C128.344 44.8638 128.331 44.938 128.363 44.9591C129.775 45.9955 129.913 47.6102 128.703 48.9683C127.65 50.1522 125.259 50.5499 123.872 49.7738C123.359 49.486 123.048 49.0553 122.985 48.467C122.854 47.2931 123.18 46.2906 124.138 45.5529C124.45 45.3109 124.804 45.1268 125.272 44.8335ZM125.99 48.8812C127.104 48.8629 128.041 47.7687 127.889 46.6635C127.776 45.8452 127.258 45.4484 126.43 45.5437C125.514 45.65 124.738 46.4848 124.657 47.4571C124.58 48.3836 125.061 48.8968 125.99 48.8812ZM125.931 43.1134C125.918 43.7549 126.316 44.2131 126.888 44.203C127.579 44.192 128.329 43.4268 128.364 42.6956C128.391 42.132 128.008 41.7361 127.41 41.7086C127.219 41.7006 127.03 41.7309 126.852 41.7978C126.673 41.8646 126.511 41.9666 126.373 42.0977C126.235 42.2287 126.125 42.3862 126.049 42.5607C125.973 42.7352 125.933 42.9232 125.931 43.1134Z" fill="white"/>
<path d="M135.481 46.1429C134.715 46.8925 133.831 47.0593 132.838 46.8503C132.078 46.69 131.611 46.2446 131.407 45.4867C130.722 42.9529 132.713 40.4466 135.321 40.5685C136.353 40.618 137.023 41.1302 137.33 42.1263C137.648 43.1518 137.505 44.1809 137.314 45.2027C137.099 46.3481 136.743 47.4496 136.078 48.4219C134.9 50.1466 132.974 50.6717 131.193 49.7663C131.052 49.6798 130.916 49.5836 130.788 49.4785C130.941 49.1835 131.077 48.9223 131.23 48.629C132.306 48.7106 133.421 49.2888 134.385 48.4201C135.036 47.8318 135.366 47.0556 135.481 46.1429ZM135.914 43.3158C135.914 41.9137 135.062 41.3914 134.123 41.9486C133.8 42.1392 133.47 42.4498 133.327 42.7834C133.086 43.3361 132.936 43.924 132.882 44.5245C132.811 45.4409 133.604 45.9853 134.466 45.6315C134.806 45.4913 135.17 45.2054 135.335 44.8874C135.636 44.3073 135.795 43.6549 135.914 43.3158Z" fill="white"/>
<path d="M90.1764 41.1746L89.6971 42.0608C89.0648 41.9627 88.4682 41.8014 87.8707 41.7969C87.2979 41.79 86.7281 41.8801 86.1855 42.0635C85.6274 42.2606 85.3516 42.7792 85.3672 43.3776C85.3818 43.9146 85.8034 44.1465 86.2359 44.3325C86.684 44.5259 87.1459 44.689 87.5839 44.9025C89.2875 45.7273 89.6219 47.6196 88.328 49.0116C87.8424 49.5244 87.2158 49.8819 86.5273 50.0389C85.138 50.3889 83.8239 50.2075 82.4888 49.5312C82.6546 49.2141 82.7893 48.9548 82.947 48.6579C83.6233 48.7376 84.2831 48.8705 84.9438 48.8778C85.5184 48.8826 86.0909 48.807 86.6446 48.6533C86.8859 48.5949 87.101 48.4578 87.2558 48.2637C87.4106 48.0695 87.4964 47.8294 87.4996 47.5811C87.5307 47.0047 87.1862 46.673 86.7298 46.4439C86.2735 46.2148 85.7777 46.0342 85.3094 45.8116C83.6104 45.0051 83.2375 43.352 84.4187 41.8885C84.8645 41.34 85.4667 40.9402 86.1452 40.7421C87.5289 40.3123 88.8265 40.5597 90.1764 41.1746Z" fill="white"/>
<path d="M137.693 47.7675C137.928 47.3093 138.021 46.9922 138.218 46.7595C139.821 44.8836 141.457 43.0353 143.053 41.153C143.562 40.5518 144.146 40.627 144.879 40.7635C144.495 42.6944 144.118 44.5913 143.733 46.5267L144.705 46.6724C144.646 47.0124 144.588 47.346 144.529 47.6896L143.468 47.7968C143.312 48.4777 143.15 49.1787 142.979 49.9293H141.365C141.502 49.1907 141.626 48.5162 141.764 47.7638L137.693 47.7675ZM142.054 46.5881C142.267 45.5269 142.469 44.5262 142.695 43.4183C141.769 44.2128 140.375 45.9531 140.136 46.5881H142.054Z" fill="white"/>
<path d="M95.8986 49.937H94.4507C94.4514 49.6949 94.4679 49.4531 94.5002 49.2131C94.7503 47.9879 95.0253 46.7672 95.2672 45.5411C95.3588 45.0829 95.5916 44.6027 95.0133 44.227C94.9034 44.1546 94.9648 43.6973 95.0647 43.4692C95.1233 43.3372 95.4193 43.2355 95.6026 43.2446C96.1762 43.2749 96.7022 43.4407 96.8635 44.15C97.1293 43.9081 97.3401 43.6918 97.5756 43.5086C98.2482 42.9807 99.3277 42.9312 100.084 43.3766C100.743 43.7652 101.065 44.534 100.916 45.4476C100.818 46.0497 100.641 46.6389 100.565 47.2428C100.489 47.8467 100.177 48.4644 100.788 49.0225C100.921 49.1434 100.764 49.5833 100.741 49.8546C99.2874 50.1093 98.6569 49.5485 98.8429 48.2051C98.9428 47.4811 99.1224 46.7682 99.2617 46.0488C99.3077 45.8409 99.3383 45.6298 99.3534 45.4174C99.3818 44.7759 99.2122 44.3993 98.8099 44.2719C98.305 44.1116 97.7964 44.1922 97.4693 44.6037C97.1642 44.9794 96.9382 45.413 96.8049 45.8784C96.519 46.9679 96.3247 48.0777 96.0901 49.1856C96.0397 49.4239 95.9719 49.6511 95.8986 49.937Z" fill="white"/>
<path d="M110.169 47.1842C109.975 48.6257 110.454 49.1609 111.741 49.0115C112.22 48.9556 112.689 48.8117 113.159 48.7091C113.594 49.3368 113.588 49.4715 112.997 49.7171C112.018 50.1277 111.005 50.2578 109.957 49.9856C109.116 49.7666 108.647 49.2085 108.546 48.3783C108.38 47.0037 108.638 45.6951 109.435 44.5423C110.287 43.3061 111.492 42.879 112.952 43.153C113.862 43.3244 114.453 43.8861 114.526 44.8099C114.555 45.3557 114.478 45.9019 114.301 46.419C114.108 47.0147 113.555 47.1778 112.968 47.1806C112.054 47.1861 111.143 47.1842 110.169 47.1842ZM110.377 46.0845C111.072 46.0845 111.682 46.112 112.288 46.069C112.402 46.0562 112.512 46.0204 112.612 45.9637C112.712 45.907 112.799 45.8306 112.868 45.7391C113.092 45.3826 112.914 44.6476 112.609 44.3791C112.303 44.1106 111.784 44.1216 111.333 44.425C110.796 44.786 110.546 45.3249 110.377 46.0827V46.0845Z" fill="white"/>
<path d="M24.6962 11.6193C25.2131 11.6193 25.729 11.6111 26.2458 11.6193C26.6701 11.6285 26.8626 11.8741 26.7828 12.2773C26.5879 13.259 26.3781 14.2365 26.1533 15.2097C26.0451 15.6826 25.7281 15.93 25.2369 15.93C24.2957 15.93 23.3528 15.9529 22.4126 15.9208C21.8426 15.9016 21.7088 15.7302 21.8123 15.1676C21.9874 14.2127 22.2027 13.2651 22.4144 12.3185C22.5216 11.8411 22.8332 11.601 23.3308 11.6083C23.789 11.6156 24.2426 11.6083 24.698 11.6083L24.6962 11.6193Z" fill="white"/>
<path d="M120.373 49.933H118.834C119.324 47.4798 119.802 45.0881 120.3 42.5927C119.622 42.8612 119.064 43.083 118.497 43.3066C118.377 42.3902 118.466 42.1914 119.188 41.8688C120.184 41.4243 121.187 40.9946 122.204 40.551C122.297 41.242 120.801 48.8608 120.373 49.933Z" fill="white"/>
<path d="M106.671 48.6796C107.007 49.4128 107 49.4824 106.488 49.7344C105.824 50.0516 105.086 50.1828 104.353 50.1138C103.007 50.0066 102.227 49.2075 102.224 47.8521C102.21 46.8106 102.459 45.7824 102.947 44.862C103.771 43.3215 105.722 42.6104 107.357 43.2436C107.632 43.3481 107.872 43.5259 108.127 43.6688C107.669 44.5293 107.669 44.5293 106.872 44.3103C105.619 43.9666 104.673 44.3873 104.232 45.5932C104.003 46.2215 103.866 46.8801 103.828 47.5479C103.765 48.7026 104.436 49.2286 105.569 48.9995C105.922 48.9298 106.265 48.7997 106.671 48.6796Z" fill="white"/>
<path d="M91.5977 43.2834H93.0209C92.9109 43.8938 92.8257 44.428 92.7185 44.9568C92.5242 45.9126 92.3006 46.8629 92.1237 47.8223C92.0568 48.1889 91.9404 48.5554 92.2997 48.922C92.471 49.0961 92.3913 49.5213 92.4179 49.8081C91.0671 50.1674 90.2534 49.601 90.4467 48.4519C90.7216 46.8024 91.1074 45.1666 91.4548 43.5263C91.49 43.4386 91.5382 43.3568 91.5977 43.2834Z" fill="white"/>
<path d="M93.6457 40.4695L93.3653 41.8771H91.8752C91.8613 41.7191 91.8613 41.5603 91.8752 41.4024C91.932 41.1064 92.0163 40.815 92.1016 40.4695H93.6457Z" fill="white"/>
<path d="M189.787 26.3091C189.065 25.872 188.321 25.4687 187.624 24.9904C186.495 24.2108 185.387 23.4011 184.298 22.561C183.919 22.2556 183.45 22.0831 182.963 22.0699C180.633 21.9663 178.906 22.8946 177.975 24.797C178.026 24.8963 178.087 24.99 178.158 25.0765C178.929 25.85 178.958 25.9764 178.416 26.9441C178.213 27.2842 177.987 27.6097 177.738 27.9183C177.641 28.0546 177.511 28.1644 177.361 28.2375C177.21 28.3107 177.043 28.3449 176.876 28.337C173.027 28.2986 169.254 27.8578 165.713 26.2587C161.772 24.4781 159.167 21.5539 158.29 17.2304C157.867 15.1539 158.075 13.0957 158.473 11.0494C158.68 9.97443 159.028 8.92608 159.247 7.85207C159.443 6.89719 160.157 6.65252 160.962 6.7524C162.263 6.91186 163.559 7.11438 164.856 7.30774C166.665 7.57624 168.474 7.84657 170.281 8.13249C170.699 8.19847 171.077 8.13982 171.407 7.88781C172.471 7.07772 173.682 6.90911 174.958 7.07956C176.195 7.24451 177.429 7.43451 178.66 7.64955C178.927 7.70699 179.175 7.83336 179.378 8.01611C181.513 9.89196 183.576 11.8375 185.334 14.0844C185.752 14.6187 186.024 15.152 185.884 15.8421C185.777 16.358 185.951 16.7759 186.287 17.18C186.892 17.9067 187.439 18.681 188.034 19.4169C189.027 20.6458 189.479 22.0891 189.71 23.614C189.837 24.4543 189.893 25.3056 189.979 26.1524L189.787 26.3091ZM177.177 14.2732C175.998 15.0586 174.397 16.5541 174.118 17.1323C175.786 16.829 177.464 16.7383 179.152 16.3617L177.177 14.2732Z" fill="#2F4265"/>
<path d="M175.852 30.3077C175.92 31.664 176.364 32.9652 175.852 34.2326C175.302 35.5907 175.541 36.7004 176.385 37.8688C177.328 39.1765 178.086 40.618 178.943 41.9926C179.174 42.3507 179.297 42.7678 179.297 43.194C179.308 44.1104 179.388 45.0268 179.388 45.9431C179.381 46.306 179.313 46.665 179.187 47.0052C178.954 47.666 178.665 48.3074 178.408 48.9599C177.941 50.1512 177.325 51.2976 177.419 52.6997C175.355 51.1528 173.431 49.5006 171.371 47.7594L175.451 45.167C175.23 44.9837 175.084 44.8508 174.925 44.7363C171.774 42.4764 168.615 40.2304 165.478 37.955C164.98 37.5884 164.561 37.5215 163.981 37.7378C161.923 38.5021 159.828 39.1692 157.777 39.9527C156.969 40.2615 156.246 40.136 155.367 39.9243C156.584 34.0915 157.793 28.2944 159.002 22.4964L159.186 22.4158C161.025 25.1393 163.38 27.2341 166.39 28.5492C169.378 29.844 172.548 30.1932 175.852 30.3077Z" fill="#304265"/>
<path d="M164.634 38.885C165.01 39.1214 165.242 39.2516 165.459 39.4064C166.925 40.441 168.391 41.4921 169.872 42.5084C170.33 42.82 170.495 43.1105 170.362 43.7061C169.87 45.9055 169.492 48.1259 169.002 50.3243C168.833 51.0849 168.837 51.7548 169.256 52.4164C169.348 52.5621 169.38 52.7445 169.484 53.0341C167.102 53.1211 164.811 53.0588 162.622 53.0771C161.744 52.0957 161.698 51.182 162.24 50.0851C162.995 48.5593 163.561 46.941 164.242 45.3767C164.532 44.7074 164.669 43.9816 164.643 43.2525C164.608 41.8532 164.634 40.453 164.634 38.885Z" fill="#304364"/>
<path d="M179.918 25.0169C181.058 23.3784 183.077 23.0109 184.56 24.0868C187.451 26.1816 190.554 27.811 194.074 28.5835C195.763 28.95 197.465 28.929 199.169 28.8584C199.737 28.8364 200.306 28.8584 200.846 28.8584C201.082 29.4724 200.762 29.7629 200.409 29.9122C199.685 30.2201 198.943 30.5317 198.179 30.6875C193.23 31.6955 188.614 30.6628 184.287 28.2004C183.074 27.5104 181.963 26.6426 180.82 25.8306C180.504 25.608 180.24 25.311 179.918 25.0169Z" fill="#324464"/>
<path d="M188.071 43.0946C188.137 43.3052 188.191 43.5194 188.233 43.7361C188.358 44.7038 188.072 45.0731 187.075 45.162C185.962 45.261 185.035 44.8715 184.354 43.9707C183.784 43.2408 183.497 42.3296 183.545 41.4048C183.63 39.8854 183.763 38.3661 183.946 36.8549C184.103 35.5555 184.404 34.2735 184.549 32.9731C184.64 32.164 184.549 31.3355 184.529 30.5163C184.523 30.2808 184.478 30.048 184.452 29.8162L189.912 31.7937C190.065 32.3582 189.835 33.0208 189.558 33.6577C188.864 35.2504 188.122 36.8229 187.435 38.4229C187.056 39.2883 186.723 40.1733 186.438 41.074C186.021 42.422 186.421 42.9508 187.819 43.0213C187.905 43.0385 187.989 43.063 188.071 43.0946Z" fill="#324464"/>
<path d="M177.177 14.2727L179.152 16.3612C177.464 16.7378 175.786 16.8285 174.118 17.1318C174.397 16.5536 175.998 15.0581 177.177 14.2727Z" fill="#DEB53D"/>
</svg>
